<svg xmlns="http://www.w3.org/2000/svg" width="16" height="16" viewBox="0 0 16 16">
    <g fill="none" fill-rule="evenodd">
        <path d="M0 0h16v15.999H0z"/>
        <path fill="#FFF" d="M5.076 2.171v9.4c-.512-.107-1.107-.066-1.698.152-1.328.494-1.797 1.695-1.445 2.682.352.988 1.392 1.387 2.72.893 1.128-.418 1.867-1.348 1.849-2.223V5.31l5.624-1.288v5.964a3.108 3.108 0 0 0-1.699.153c-1.328.494-1.797 1.695-1.445 2.682.352.988 1.392 1.387 2.72.894 1.128-.419 1.867-1.349 1.85-2.223V.35L5.075 2.171z"/>
    </g>
</svg>
